<svg xmlns="http://www.w3.org/2000/svg" viewBox="0 0 100 100"><defs><style>.cls-1{fill:#1e1e1e;}.cls-2{fill:#488c52;}</style></defs><title>Artboard 1</title><g id="grass"><path class="cls-1" d="M29,94.52c-4.44-1.13-11.43-2.07-14.77-13.87-1.82-6.44.92-13,2.75-17.21s4-6,8-8.64,9.19-6,11.93-6.38a19.48,19.48,0,0,1,6.66.77,33.61,33.61,0,0,0,7.3.35c1.82-.28,3.16.07,5.26-.28s4.42-.91,5.75-2.1,2.1.42,2.39,1.05a8.14,8.14,0,0,1-2.39,7.3,14.17,14.17,0,0,1-6.8,3.44c-1.19.35-.49.84.7,1.12s9.82,3.16,12.84,3.16,4.84.28,7.09-.35,2.95-1.26,5.75-1.89,3.88.36,4.28.85a2.92,2.92,0,0,1,.7,2.26,5.41,5.41,0,0,1-3.64,4l-1.47.75s.16,2.52.11,4-1.12,3-3,4.33a31.17,31.17,0,0,0-3,2.11,4.62,4.62,0,0,1-.66,2c-.69,1.15-2.11,3.78-3.57,4.94s-5.07,1.07-5.07,1.07a4.3,4.3,0,0,1-1.56,2.47c-1.18.71-.93,1-1.89,1.1a9,9,0,0,0-2.22.27s-10,2-14.81,2.86C39.88,95.1,34.43,95.89,29,94.52Zm24.4-9.6c.43-.4-1.43-2.81-1.81-5s-.38-4.09,1.26-5.41c1.19-1,2.58-1.54,3.73.69a47.81,47.81,0,0,0,2.58,4.61c.66,1,1.26,1,1.76,2.34s.66-.21.66-.21a4.13,4.13,0,0,1-.93-1.38,5,5,0,0,1,1.43-4.67c1.76-1.7,3.07-1.33,3.68-1S66.5,76,67.05,76.7s.82,1.06,1,1.06.48-.58.32-2c-.09-.82-.74-2,.06-3.14,0-5.12-8.94-10.34-13.42-11.78-3-1-5.5-2.86-17.13-1.11-10.53,1.58-10.05,12.65-9.95,15s.27,4.06,2.3,6.1A17.43,17.43,0,0,0,41,85.34C44.12,85.58,52.78,85.55,53.45,84.92Z"/><g id="g5378"><path id="path5380" class="cls-2" d="M45.68,75.59l1.77,1.8.6-.65L47,68.7l.09-1.3.55-1.94.58-1.78.63-1.4,2,3.44,2,3.64.44,2.13,2.78-2.73L57.5,58.17l3-14.3,1.9-9.71,3.86-7.65.58-1.59L67,24l.08-1.51-.24-1.21-.55-1.09-1-1,.05.28.5.51L66.29,21l.05.87-.63,1.73L64.9,25.5l-1.75,3.14,1-7.24.28-3.81-.35-.07-2,13-.37.66-3.22,6-4.11,8.14L51,52.44,49,57.36,47.95,55.5l.68-1.4,3.75-7.2,3.81-6.35,1.59-3.1,1.31-2.57.35-.88.08-.85-.16-.66h-.16l-.12.58-.66,1.51-1.59,2.68-4.54,7-2.59,3.83-1.77,3.14L49,40.39l.41-4.61L49.62,26h0l.08-.33.25-.6.2-.55.24-.41v-.8l-.08-1,.35-.66-.16-1V20l.13-.41.28-.91.2-.49-.37-.6L51,17l-.5-.35-.3-.91.43-.71-.6-.2-.26-.47V14l-.28-.46-.28-.25,0-.38v-.42l-.13-1.14L49,10.65l-.41-.3-.2-.35L48,9.77l-.28-.5.05-.56-.05-.58-.3-.5-.52-.1-.49-.17L46.14,7,46,6.63l-.38.25-.16.49-.08.52-.25.83-.17-.28.08,1L45,9.67v.38l.14.3.13.41.25.33.1.14.08.38-.31.24.13.34-.3.38.05.3.08.3.25.3.22.28.3.26.05.22-.1.33-.25.22-.12.18,0,.47.38.25.22.24.13.47-.41.49-.07.34.17.38.25.3v.3l.18.24.17.2.13.22-.08.38.25.35.22.05.08.17-.08.3.21.43.22.17.17.35-.17.6.25.55.24.1.12.25.05.71-.13.3-.12.35.35,1.78.63.41L49,33.9l-.73,8.36-.43,4.84L47.16,53l-.28.71-2.34-4-.8-5.37-1-8.71-1.23-8.08.09,7.38L42,41l.75,5.81-5.21-8.25L30.06,27.33l-1.72-2.39H28.2l.5,1.43.93,2.32L31,31.8l2.39,5.12,1.44,2.57,1.78,3.1,3.69,5.84,3.33,5.3.51,4.75,1.59,10.85h0l-1.84-5.7L40,54.05l-3.1-6.43L32.8,40.94,30.72,38.2l-1.67-1.67L26.33,34l1.13,1.39,1.82,1.86,1.08,1.21.71,1.23.85,1.36,1.39,2.39,1.21,2.22,1.23,2.74,1.51,3.66,3,7.64,3.1,8.06,1.86,5.7Zm-5.43-5.41-.54-1.45-1-1.89-2.18-4.16-3.07-5.54-2.17-3.56-2-3.07L28.2,49l-.91-.91,1.56,3,1.43,3.32,2.15,4.89.94,2.17.95,2.81Zm-13-22.08,0-.05L27.19,48Zm33-9.88-.52,2.19-2.38,9.5-1.15,5.39L55,61.83l-1.34,4.25L53.17,65l-3-5.64,1-2.38,3.33-7,1.78-3.75,2.39-5Zm3,7.07-.43,2.52L61.53,52,60.3,55.1l-1.36,4-.72,4-.68,4.21L60,64.8l.1-1.29.28-2.23L61,58.13l1.43-5.63.66-4.17ZM45.53,56.78l1,1.67-.21,3.88-.16.12Zm1.68,2.8.58,1-.45,1-.33.24Z"/></g></g></svg>