<?xml version="1.0"?><svg width="1600" height="1200" xmlns="http://www.w3.org/2000/svg">
 <title>Conclave</title>
 <metadata id="metadata7">image/svg+xml</metadata>
 <g>
  <title>Layer 1</title>
  <path d="m868.819946,1159.007202c1.908997,-67.955078 -115.584167,-97.435181 -162.845581,-150.506958c-78.273315,-40.537781 -103.067566,-103.637329 -104.795288,-165.775085c-6.362122,-99.377075 120.208618,-691.924133 304.60437,-851.062559c-70.665527,244.369764 104.766235,569.885313 213.150391,677.572691c73.342529,83.671387 100.915527,180.007751 74.49707,274.800232c-12.979614,75.627319 -102.493408,121.071167 -150.91748,188.901733c-48.439087,40.85022 -114.359741,44.720337 -173.693481,26.069946z" id="path2041" stroke-width="1.0000002pt" fill-rule="evenodd" fill="#e73900" transform="rotate(6.06823 902.1 580.695)"/>
  <rect fill="#ffffff" stroke-width="1.0000002pt" stroke-dasharray="null" stroke-linejoin="null" stroke-linecap="null" x="150.894832" y="22.537468" width="9.250377" height="217.806141" id="svg_8" transform="rotate(19.8923 155.52 131.441)"/>
  <path d="m322.542145,1011.233093c-302.366764,-411.324768 62.728607,-448.059814 -30.399048,-1011.179383c228.391083,265.658509 292.154877,591.518617 388.03714,687.898438c66.174255,75.692078 98.810791,167.058533 89.913513,260.931274c-0.897217,74.293457 105.062805,164.313354 76.088745,233.675537c-154.064453,-109.345093 -419.060333,-38.074585 -523.64032,-171.325867l-0.000031,0z" id="path2043" stroke-width="1.0000004pt" fill-rule="evenodd" fill="#e73900" transform="rotate(1.0875 525.706 591.306)">Camp Manatoc</path>
  <path d="m880.256714,1207.510864c25.28479,-68.276611 -24.752747,-176.499878 -40.509766,-239.823853c-42.748657,-57.020325 -38.61792,-125.86853 -18.026978,-189.013c30.310242,-101.725403 35.314331,-581.771851 524.455444,-807.202452c-379.353455,334.887053 -127.461548,607.051146 -86.396118,738.10272c23.990967,99.595032 11.726807,203.399597 -42.373779,292.967102c-74.691406,123.657593 -274.115112,191.809937 -337.148804,204.969482z" id="path2063" stroke-width="1.0000002pt" fill-rule="evenodd" fill="#e73900" transform="rotate(4.53346 1076.43 589.491)"/>
  <path d="m847.866577,1080.181641c1.363892,-57.198608 -82.585388,-82.012634 -116.35376,-126.683716c-55.926514,-34.121521 -73.641907,-87.232788 -74.876404,-139.535034c-4.545837,-83.647278 107.026001,-525.892517 196.503723,-716.350952c-61.058838,431.727539 95.992371,479.680298 173.433105,570.32196c52.40332,70.42749 72.10437,151.515198 53.228638,231.303101c-9.274048,63.656616 -49.251221,121.678589 -83.850281,178.77301c-34.609863,34.383911 -105.691345,17.869873 -148.085022,2.171631z" id="path1305" stroke-width="1.0000000pt" fill-rule="evenodd" fill="#e78c00" transform="rotate(7.67647 871.66 597.928)"/>
  <path d="m418.108063,957.721924c-313.48349,-330.932922 28.083801,-353.979675 -58.85614,-808.470154c103.250366,214.2229 188.868927,375.151672 226.464874,527.260498c55.63739,53.71228 247.881897,381.600159 236.359863,441.046814c-121.156189,-70.920288 -313.703552,-64.548096 -403.968597,-159.837158z" id="path2061" stroke-width="1.0000004pt" fill-rule="evenodd" fill="#e78c00">Camp Manatoc</path>
  <path d="m475.197113,921.825806c-149.236725,-180.500977 -37.786346,-286.479004 -39.120728,-511.925995c41.25592,197.310028 171.746002,245.928009 170.070282,364.454987c21.557068,35.455994 134.432983,288.297058 124.994751,320.787048c-50.188599,-51.219971 -199.400635,-104.927002 -255.944305,-173.31604z" id="path2051" stroke-width="1.0000004pt" fill-rule="evenodd" fill="#e7e100" transform="rotate(-11.5239 564.52 752.521)"/>
  <path d="m854.164185,972.345581c-31.424805,-41.883118 -28.388306,-92.454163 -13.25177,-138.835693c22.281128,-74.720459 120.175964,-490.043976 260.024963,-580.378357c-100.995056,170.733612 31.807861,433.360779 61.995361,529.622559c17.635986,73.155762 22.568115,159.685913 -31.14917,215.19342c-81.149658,83.854126 -183.580688,132.6875 -240.982361,144.395508c-36.490417,23.021606 -25.054016,-123.483704 -36.637024,-169.997437z" id="path2045" stroke-width="1.0000002pt" fill-rule="evenodd" fill="#e78c00" transform="rotate(9.20332 1002.46 698.956)"/>
  <path d="m834.112244,1047.606079c2.851013,-38.139832 -50.451416,-56.443909 -70.700745,-86.952087c-34.902771,-23.930359 -44.503357,-59.73999 -43.493774,-94.663757c-0.050964,-55.908997 -2.464966,-404.415619 87.153137,-491.054291c-39.667175,136.195313 109.714478,339.220673 156.551392,401.313873c31.377258,48.082703 41.29187,102.597595 26.367004,155.443237c-8.179565,42.284241 -35.971924,80.168213 -60.260254,117.54425c-23.515991,22.222778 -68.80426,9.724854 -95.61676,-1.631226z" id="path1310" stroke-width="0.99999981pt" fill-rule="evenodd" fill="#e7e100" transform="rotate(10.5184 858.328 718.235)">goes brighter</path>
  <path d="m828.301147,1059.460327c24.380066,-30.569458 -5.843872,-66.759705 -3.614441,-100.081238c-12.839539,-33.624634 0.637329,-67.157959 21.732788,-95.78302c32.496765,-46.477722 89.604675,-391.880432 208.741638,-428.600525c-109.672485,97.564087 80.775879,358.425293 80.557739,428.457214c-3.917847,52.30719 -78.240234,123.001099 -120.440308,161.039185c-30.876343,31.916504 -91.981628,62.588989 -132.357788,84.087524c-30.963074,-16.11377 -40.670349,-29.129883 -54.619629,-49.119141z" id="path2047" stroke-width="0.99999981pt" fill-rule="evenodd" fill="#e7e100" transform="rotate(13.464 977.697 771.788)"/>
  <path d="m775.913452,971.594971c-85.571045,-117.133118 -53.824036,-247.810486 -17.433777,-390.342041c16.577393,96.710571 85.632202,214.070862 124.669067,252.55719c26.941895,30.225281 40.229187,66.709106 36.606812,104.194397c-0.365295,29.666565 -17.694275,65.613403 -29.49054,93.310425c-62.724792,-43.66333 -71.773376,-6.510864 -114.351563,-59.719971z" id="path2049" stroke-width="1.0000011pt" fill-rule="evenodd" fill="#ffff9e" transform="rotate(11.4502 820.824 806.284)"/>
  <path d="m848.403381,920.228271c68.862976,-132.527527 0.6922,-236.861938 158.519104,-340.829712c-47.130127,96.385803 60.661133,248.578369 48.932251,301.351624c-19.724487,88.748962 -155.934753,154.80365 -190.366882,161.64386c8.203308,-72.978149 -46.266602,-59.128906 -17.084473,-122.165771z" id="path2065" stroke-width="1.0000011pt" fill-rule="evenodd" fill="#ffff9e" transform="rotate(7.95645 948.24 810.896)"/>
  <path d="m521.28949,622.067261c176.423645,356.684021 172.524902,176.607361 242.484619,482.07666c-333.472443,-237.360046 -183.80603,-215.935486 -242.484619,-482.07666z" id="path2067" stroke-width="1.0000011pt" fill-rule="evenodd" fill="#ffff9e" transform="rotate(-21.3288 642.532 863.106)"/>
  <text fill="#000000" stroke-width="0" stroke-dasharray="null" stroke-linejoin="null" stroke-linecap="null" x="83.678699" y="12.970503" id="svg_1" font-size="24" font-family="Arial" text-anchor="middle" xml:space="preserve" transform="rotate(-0.225035 119.591 25.2897) matrix(4.79899 0 0 1.20895 -281.125 19.2355)"/>
  <text fill="#000000" stroke-width="0" stroke-dasharray="null" stroke-linejoin="null" stroke-linecap="null" x="-206.146667" y="19.146667" id="svg_4" font-size="24" font-family="Arial" text-anchor="middle" xml:space="preserve"/>
 </g>
</svg>